<?xml version="1.0" encoding="UTF-8" standalone="no"?>
<!-- Creator: CorelDRAW -->

<svg
   xml:space="preserve"
   width="1280px"
   height="640px"
   version="1.1"
   style="shape-rendering:geometricPrecision; text-rendering:geometricPrecision; image-rendering:optimizeQuality; fill-rule:evenodd; clip-rule:evenodd"
   viewBox="0 0 1280 640"
   id="svg1433"
   sodipodi:docname="stableretro-github.svg"
   inkscape:version="1.2.2 (b0a8486541, 2022-12-01)"
   inkscape:export-filename="../github/stableretro-github.png"
   inkscape:export-xdpi="96"
   inkscape:export-ydpi="96"
   xmlns:inkscape="http://www.inkscape.org/namespaces/inkscape"
   xmlns:sodipodi="http://sodipodi.sourceforge.net/DTD/sodipodi-0.dtd"
   xmlns="http://www.w3.org/2000/svg"
   xmlns:svg="http://www.w3.org/2000/svg"><sodipodi:namedview
   id="namedview1435"
   pagecolor="#ffffff"
   bordercolor="#666666"
   borderopacity="1.0"
   inkscape:showpageshadow="2"
   inkscape:pageopacity="0.0"
   inkscape:pagecheckerboard="0"
   inkscape:deskcolor="#d1d1d1"
   showgrid="false"
   inkscape:zoom="0.43852551"
   inkscape:cx="624.82112"
   inkscape:cy="363.71887"
   inkscape:window-width="1600"
   inkscape:window-height="853"
   inkscape:window-x="0"
   inkscape:window-y="0"
   inkscape:window-maximized="1"
   inkscape:current-layer="Layer_x0020_1"
   showguides="true"><inkscape:grid
     type="xygrid"
     id="grid1682" /><sodipodi:guide
     position="329,286"
     orientation="1,0"
     id="guide1684"
     inkscape:locked="false" /><sodipodi:guide
     position="283,291"
     orientation="1,0"
     id="guide1686"
     inkscape:locked="false" /></sodipodi:namedview>
 <defs
   id="defs1427"><rect
   x="305.54267"
   y="230.69497"
   width="1054.0197"
   height="227.61904"
   id="rect1656" />
  <style
   type="text/css"
   id="style1425">
   <![CDATA[
    .str0 {stroke:#373435;stroke-width:2.36;stroke-miterlimit:22.9256}
    .fil0 {fill:none}
   ]]>
  </style>
 </defs>
 <g
   id="Layer_x0020_1"
   inkscape:label="Layer 1">
  <metadata
   id="CorelCorpID_0Corel-Layer" />
  <rect
   style="fill:#ffffff;stroke:none;stroke-width:15;stroke-linecap:round"
   id="rect1998"
   width="1280"
   height="640"
   x="0"
   y="0" />
 <g
   id="g1819"
   transform="translate(118.50784)"><g
     id="g544"
     transform="matrix(0.16654563,0,0,0.16536557,140.34528,237.94479)"
     style="clip-rule:evenodd;fill-rule:evenodd;stroke-width:20.1612;stroke-dasharray:none;image-rendering:optimizeQuality;shape-rendering:geometricPrecision;text-rendering:geometricPrecision"><path
       style="opacity:1;fill:none;stroke:#000000;stroke-width:20.1612;stroke-linecap:round;stroke-linejoin:round;stroke-dasharray:none"
       d="m 302.502,119.51051 c 59.88054,2.52499 232.09166,9.61258 332.245,11.94039 37.81246,0.87885 61.61808,32.03992 83.25883,58.04495 17.92522,21.54019 36.45696,49.5254 34.75018,76.55105 -3.15299,49.92555 -15.48388,149.88779 -31.21879,238.13796 -3.85693,26.24675 -8.8472,53.42631 -27.55864,74.44722 -20.61854,22.9079 -46.95246,46.31766 -65.41775,60.87402 -23.78186,20.58326 -62.56959,22.16287 -89.94977,21.6534 -169.33141,-3.15168 -169.02259,-7.8345 -294.44673,-10.92389 -13.09317,-0.3225 -45.61729,-2.57984 -41.48059,35.42139 3.29112,30.23344 17.69102,63.04474 24.29837,80.73329 10.81947,28.96482 42.64178,32.55186 42.64178,32.55186 0,0 136.13411,11.32673 282.48648,11.88236 21.93255,0.0833 69.9705,-2.02483 74.6621,42.44061 3.73618,35.41031 1.96962,100.96867 1.96962,100.96867 0.0808,14.41101 12.79858,22.0612 28.44688,8.24788 40.61022,-35.8481 92.60085,-85.40152 115.12396,-110.66283 22.52311,-25.26131 25.5876,-48.18893 27.74653,-68.64171 21.00715,-199.01299 42.83325,-579.43094 42.83325,-579.43094 0.5823,-30.62953 -6.00221,-42.01946 -12.72388,-53.04119 0,0 -60.82945,-78.331541 -97.65228,-108.969129 C 715.19443,27.323402 687.94955,26.931433 665.43965,25.89263 557.38026,20.90583 435.5336,13.963733 307.59531,12.563048 c -23.53765,-0.257693 -44.11375,24.855833 -50.82172,40.309836 -7.41879,17.091597 -22.02817,45.169252 -22.4272,69.513136 -0.41239,25.15895 4.69104,32.4825 30.3192,72.34684 19.82314,30.83467 24.59848,55.45216 22.77745,82.79291 -3.66744,55.06251 -18.31926,125.55908 -29.70592,207.25177 -2.12446,15.2418 -5.63139,26.11005 -22.93872,40.06554 -21.31374,17.18599 -47.09812,37.98311 -79.95367,64.86275 -12.65126,10.3502 -22.03687,28.08128 -22.78481,43.42213 -1.04869,21.50931 11.81829,53.99377 18.35784,72.11642 5.32831,14.76601 25.42426,63.6025 30.76754,112.76741 5.34328,49.16491 10.43207,91.74843 13.6323,111.75144 3.20023,20.00301 12.62362,34.92001 43.17484,36.2051 l 329.98947,13.88051"
       id="path4019"
       sodipodi:nodetypes="csasccccssscsscszsccsssssssssssszzsc" /><path
       style="opacity:1;fill:none;stroke:#000000;stroke-width:20.1612;stroke-linecap:round;stroke-linejoin:round;stroke-dasharray:none"
       d="m 586.90088,462.81619 c -49.97165,-1.3824 -181.2486,-6.08474 -236.40106,-8.65165 -31.16422,-1.45045 -36.72906,-31.60875 -32.17985,-55.2308 9.50945,-49.37844 22.74525,-102.4563 34.13835,-141.21913 12.31496,-41.89929 29.33724,-49.66867 57.35495,-48.91032 43.82857,1.1863 179.31283,6.56238 236.40106,8.65165 22.60845,0.82741 46.27098,12.01081 37.36515,52.37683 -10.07595,45.66964 -22.78611,94.11421 -34.13834,141.21912 -8.33949,34.60386 -29.90629,51.18279 -62.54026,51.7643 z"
       id="path10555"
       sodipodi:nodetypes="csssssssc" /><ellipse
       style="opacity:1;fill:none;stroke:#000000;stroke-width:20.1612;stroke-linecap:round;stroke-linejoin:round;stroke-dasharray:none"
       id="path10609"
       cx="311.17194"
       cy="542.71545"
       rx="39.460758"
       ry="19.929008" /><path
       style="opacity:1;fill:none;stroke:#000000;stroke-width:20.1612;stroke-linecap:round;stroke-linejoin:round;stroke-dasharray:none"
       d="m 583.78294,549.31957 c 8.13814,-16.16625 2.74111,-29.87839 -4.02908,-38.42176 -11.61649,-14.65896 -32.75663,-15.92782 -46.74359,-8.50036 -12.69112,6.73933 -20.87875,25.52322 -17.36478,39.45645 3.63384,14.40849 18.81169,27.63069 35.15936,27.40626 l -0.43193,18.34006"
       id="path10613"
       sodipodi:nodetypes="csaacc" /><path
       style="opacity:1;fill:none;stroke:#000000;stroke-width:20.1612;stroke-linecap:round;stroke-linejoin:round;stroke-dasharray:none"
       d="m 517.08453,600.84645 c -3.99524,10.39744 9.28817,19.66909 34.06904,20.18215 23.57137,0.48802 37.20378,-10.34185 35.66351,-20.01156"
       id="path12067"
       sodipodi:nodetypes="csc" /><ellipse
       style="opacity:1;fill:none;stroke:#000000;stroke-width:20.1612;stroke-linecap:round;stroke-linejoin:round;stroke-dasharray:none"
       id="ellipse12795"
       cx="393.52878"
       cy="590.84644"
       rx="39.460758"
       ry="19.929008" /></g><text
     xml:space="preserve"
     style="font-weight:200;font-size:116px;font-family:'Source Sans Pro';-inkscape-font-specification:'Source Sans Pro Ultra-Light';fill:#000000;stroke-linecap:round;stroke-linejoin:round"
     x="324.83942"
     y="357.32562"
     id="text1808"><tspan
       sodipodi:role="line"
       id="tspan1806"
       x="324.83942"
       y="357.32562">Stable Retro</tspan></text></g></g>
</svg>
